# xmcd
#
# Track frame offsets: 
#        150
#        58366
#        94779
#        140421
#        149813
#        189413
#        210299
#        228134
#        242884
#        262548
#        271914
#        289538
#
# Disc length: 4227 seconds
#
# Revision: 4
# Processed by: cddbd v1.5.2PL0 Copyright (c) Steve Scherf et al.
# Submitted via: ExactAudioCopy v1.3
#
DISCID=ac10810c
DTITLE=Jonathan Biss - Schumann
DYEAR=2006
DGENRE=Classical
TTITLE0=Robert Schumann (1810-1856) - Fantasie in C Op17 - Durchaus ph
TTITLE0=antastisch und leidenschaftlich vorzutragen - Im Legendenton -
TTITLE0=Erstes Tempo
TTITLE1=Robert Schumann (1810-1856) - Fantasie in C Op17 - Massig. Dur
TTITLE1=chaus energisch - Etwas langsamer
TTITLE2=Robert Schumann (1810-1856) - Fantasie in C Op17 - Langsam get
TTITLE2=ragen. Durchweg leise zu halten - Etwas bewegter - Adagio
TTITLE3=Robert Schumann (1810-1856) - Kreisleriana Op16 - Ausserst bew
TTITLE3=egt
TTITLE4=Robert Schumann (1810-1856) - Kreisleriana Op16 - Sehr innig u
TTITLE4=nd nicht zu rasch - Intermezzo I: Sehr lebhaft - Erstes Tempo 
TTITLE4=Intermezzo II: Etwas bewegter - Langsamer (Erstes Tempo)
TTITLE5=Robert Schumann (1810-1856) - Kreisleriana Op16 - Sehr aufgere
TTITLE5=gt - Etwas langsamer - Erstes Tempo
TTITLE6=Robert Schumann (1810-1856) - Kreisleriana Op16 - Sehr langsam
TTITLE6=Bewegter - Erstes Tempo
TTITLE7=Robert Schumann (1810-1856) - Kreisleriana Op16 - Sehr lebhaft
TTITLE8=Robert Schumann (1810-1856) - Kreisleriana Op16 - Sehr langsam
TTITLE8=Etwas bewegter - Erstes Tempo
TTITLE9=Robert Schumann (1810-1856) - Kreisleriana Op16 - Sehr rasch -
TTITLE9=Noch schneller - Etwas langsamer
TTITLE10=Robert Schumann (1810-1856) - Kreisleriana Op16 - Schnell und
TTITLE10=spielend
TTITLE11=Robert Schumann (1810-1856) - Arabeske in C Op18 - Leicht und
TTITLE11=zart - Minore I: Etwas langsamer - Tempo I - Minore II: Etwa
TTITLE11=s langsamer - Zum Schluss: Langsam
EXTD=Jonathan Biss\nSchumann: Fantasie, Kreisleriana, Arabeske
EXTT0=
EXTT1=
EXTT2=
EXTT3=
EXTT4=
EXTT5=
EXTT6=
EXTT7=
EXTT8=
EXTT9=
EXTT10=
EXTT11=
PLAYORDER=
